<?xml version="1.0" standalone="no"?>
<!DOCTYPE svg PUBLIC "-//W3C//DTD SVG 20010904//EN"
 "http://www.w3.org/TR/2001/REC-SVG-20010904/DTD/svg10.dtd">
<svg version="1.0" xmlns="http://www.w3.org/2000/svg"
 width="300.000000pt" height="300.000000pt" viewBox="0 0 300.000000 300.000000"
 preserveAspectRatio="xMidYMid meet">
<metadata>
Created by potrace 1.10, written by Peter Selinger 2001-2011
</metadata>
<g transform="translate(0.000000,300.000000) scale(0.050000,-0.050000)"
fill="#000000" stroke="none">
<path d="M990 5782 c-630 -13 -660 -17 -719 -108 -37 -56 -61 -2926 -37 -4369
l16 -944 55 -56 56 -55 694 -13 c894 -16 2883 -16 3846 0 826 14 805 11 855
143 30 79 50 2466 34 3931 l-15 1329 -59 58 c-33 32 -83 63 -113 70 -75 17
-3891 29 -4613 14z m4690 -2777 l0 -2675 -2680 0 -2680 0 0 2675 0 2675 2680
0 2680 0 0 -2675z"/>
<path d="M2717 5009 c-834 -151 -1129 -856 -918 -2193 l15 -93 -92 10 c-207
25 -361 -283 -284 -568 28 -103 18 -98 454 -245 326 -110 580 -220 676 -291
78 -57 -102 -154 -376 -202 -87 -15 -164 -32 -169 -38 -15 -14 -62 -154 -63
-184 0 -46 142 -182 244 -233 l101 -50 157 133 c180 153 485 345 546 345 24
-1 123 -74 232 -173 263 -238 379 -313 452 -295 296 69 375 422 103 458 -144
20 -307 84 -379 148 l-60 54 217 102 c249 118 440 179 661 214 228 35 348 241
314 542 -24 224 -74 270 -255 234 -95 -19 -96 -18 -84 29 7 28 -5 87 -29 144
-42 95 -42 96 -3 186 160 373 149 1004 -25 1369 -207 437 -848 703 -1435 597z
m677 -159 c643 -204 930 -861 705 -1612 -46 -152 -73 -155 -78 -8 -2 33 -16
87 -32 120 -27 56 -28 48 -23 -130 5 -166 14 -208 72 -332 63 -136 64 -146 35
-203 -83 -161 -252 -230 -346 -143 -89 84 -267 -85 -267 -254 0 -63 -13 -100
-48 -138 -57 -62 -63 -55 -81 96 -23 192 -80 118 -61 -80 l13 -146 -51 0 c-50
0 -52 4 -52 128 0 86 -9 135 -29 151 -49 41 -70 -33 -46 -155 24 -123 -6 -179
-83 -155 -38 12 -42 28 -42 174 0 207 -45 211 -61 5 -12 -158 -25 -188 -80
-188 -35 0 -39 15 -39 148 0 103 -9 154 -29 171 -50 42 -78 -43 -52 -161 27
-126 28 -118 -17 -118 -69 0 -87 47 -63 172 11 64 21 123 21 132 0 26 -76 18
-87 -9 -5 -14 -11 -5 -11 20 -4 97 -82 38 -82 -62 -1 -35 -4 -37 -20 -13 -11
17 -20 72 -20 124 0 119 -36 202 -79 185 -341 -132 -499 139 -371 642 27 108
45 201 39 206 -20 20 -47 -29 -75 -137 l-28 -110 -24 80 c-305 1029 516 1910
1492 1600z m-1600 -2290 c32 -33 101 -136 153 -230 52 -93 104 -170 115 -170
43 0 353 -165 618 -330 207 -128 287 -169 306 -153 14 11 139 70 279 131 554
242 631 291 760 487 245 372 473 376 387 7 -16 -69 -25 -137 -20 -151 7 -18
-59 -50 -206 -101 -642 -225 -1066 -403 -1066 -450 0 -58 417 -286 600 -328
146 -33 155 -96 25 -168 l-85 -47 -207 167 c-115 91 -268 198 -340 236 l-133
70 -207 -105 c-136 -69 -252 -146 -338 -225 -145 -133 -157 -137 -249 -81
-122 75 -108 179 24 181 130 2 413 127 589 259 l48 37 -143 91 c-303 194 -695
362 -966 414 -176 34 -178 37 -178 226 0 270 100 370 234 233z m457 -163 c82
37 89 29 89 -97 0 -140 -16 -148 -133 -63 -72 52 -207 202 -207 230 0 6 45
-12 100 -41 86 -44 108 -49 151 -29z m1574 -11 c154 -16 140 -38 -155 -244
-141 -99 -138 -101 -102 70 42 197 50 213 100 199 23 -7 94 -18 157 -25z
m-1258 -211 c8 -59 5 -95 -8 -95 -32 0 -45 54 -30 132 17 89 22 84 38 -37z
m513 -347 c-88 -51 -91 -51 -155 -17 -99 54 -79 69 90 69 l155 0 -90 -52z"/>
<path d="M2243 3358 c-215 -109 -246 -340 -70 -530 108 -116 454 20 605 239
l59 87 -37 60 c-105 175 -365 241 -557 144z m237 -246 c0 -32 -128 -82 -160
-62 -28 17 -25 65 5 77 56 22 155 13 155 -15z"/>
<path d="M3342 3373 c-227 -83 -222 -389 8 -524 328 -193 695 51 538 356 -83
159 -345 240 -546 168z m287 -253 c65 -24 66 -75 2 -92 -90 -22 -242 55 -196
100 18 19 137 14 194 -8z"/>
<path d="M2943 2701 c6 -176 12 -205 53 -245 101 -101 118 122 25 319 -79 166
-86 159 -78 -74z"/>
<path d="M2835 2734 c-67 -149 -74 -274 -17 -274 65 0 89 56 98 231 11 201 -7
210 -81 43z"/>
</g>
</svg>
