 <svg version="1.0" xmlns="http://www.w3.org/2000/svg"  width="50.000000pt" height="50.000000pt" viewBox="0 0 900.000000 900.000000"  preserveAspectRatio="xMidYMid meet">  <g transform="translate(0.000000,900.000000) scale(0.100000,-0.100000)" fill="#000000" stroke="none"> <path d="M0 4500 l0 -4500 4500 0 4500 0 0 4500 0 4500 -4500 0 -4500 0 0 -4500z m4870 2825 c82 -18 168 -40 215 -57 17 -5 45 -14 64 -18 18 -5 38 -13 44 -19 6 -6 17 -11 25 -11 8 0 58 -22 111 -49 361 -180 638 -481 796 -866 110 -267 160 -668 120 -969 -24 -183 -50 -311 -87 -421 -5 -16 -13 -43 -18 -60 -5 -16 -18 -55 -30 -85 -12 -30 -25 -66 -29 -79 -14 -48 -28 -31 -44 51 -41 220 -50 256 -71 297 -33 62 -41 27 -41 -177 0 -190 12 -278 51 -370 8 -18 14 -39 14 -46 0 -29 112 -262 139 -289 15 -15 14 -40 -3 -79 -8 -18 -17 -40 -20 -48 -31 -81 -159 -214 -251 -260 -50 -25 -72 -30 -131 -30 -64 0 -76 3 -115 31 -24 18 -56 46 -71 63 l-26 31 -68 -35 c-38 -19 -95 -62 -129 -95 -56 -54 -71 -78 -116 -180 -7 -17 -16 -86 -19 -160 -5 -129 -5 -130 -30 -133 -34 -5 -51 -23 -75 -76 -11 -25 -25 -46 -31 -46 -6 0 -18 17 -27 38 -16 39 -47 225 -47 286 0 28 -4 36 -17 36 -23 0 -35 -9 -56 -40 -22 -31 -22 -150 -2 -235 18 -73 19 -177 3 -193 -18 -18 -98 -15 -120 5 -16 14 -18 34 -18 169 0 123 -3 162 -17 193 -22 51 -51 65 -84 40 -23 -17 -24 -23 -22 -111 1 -55 8 -111 17 -137 21 -57 20 -135 -1 -171 -18 -32 -78 -56 -115 -47 -84 21 -107 96 -89 285 7 70 12 145 10 167 -5 55 -30 58 -63 8 -23 -35 -26 -51 -31 -183 -8 -172 -20 -245 -46 -271 -25 -25 -114 -27 -127 -3 -5 8 -7 97 -4 198 4 170 3 184 -17 223 -25 50 -35 57 -67 49 -47 -12 -65 -98 -44 -215 35 -198 33 -211 -27 -211 -27 0 -46 7 -65 25 -44 41 -46 66 -17 235 7 41 13 107 13 145 l1 70 -36 3 c-27 2 -41 -3 -61 -23 -29 -29 -44 -20 -34 20 4 17 0 31 -14 45 -27 27 -46 25 -79 -8 -22 -22 -30 -41 -36 -92 l-7 -65 -15 35 c-18 42 -33 135 -33 209 0 109 -59 239 -104 227 -100 -25 -209 -46 -245 -46 -124 0 -270 70 -317 153 -28 50 -54 111 -54 127 0 10 -7 37 -15 60 -10 30 -15 83 -15 174 0 133 7 185 59 441 13 63 32 136 47 180 8 23 14 50 14 60 0 11 7 33 15 49 27 51 15 87 -23 67 -33 -17 -112 -237 -112 -309 0 -19 -5 -32 -13 -32 -11 0 -21 28 -62 170 -27 91 -44 200 -61 380 -17 182 -17 188 4 400 27 263 36 313 91 490 35 110 51 152 97 245 51 104 56 111 109 185 23 30 49 69 59 85 11 17 26 37 35 46 9 9 52 54 96 99 91 94 195 176 305 241 110 65 172 93 330 149 19 6 51 15 70 20 19 4 55 12 80 18 125 30 161 36 235 43 140 13 511 3 595 -16z m-2279 -3423 c19 -9 46 -26 60 -37 35 -29 120 -126 130 -150 5 -11 18 -33 29 -50 11 -16 24 -39 30 -50 6 -11 20 -36 31 -55 12 -19 40 -70 63 -113 55 -104 55 -105 99 -165 21 -29 46 -52 56 -52 9 0 26 -7 37 -15 10 -8 25 -15 31 -15 23 0 292 -130 373 -179 19 -11 42 -24 50 -28 8 -4 75 -43 148 -87 73 -45 143 -87 155 -94 12 -7 34 -21 49 -30 14 -9 70 -44 123 -77 53 -33 108 -68 123 -77 15 -10 36 -22 47 -28 11 -6 34 -19 50 -29 17 -11 47 -29 67 -40 20 -11 46 -26 57 -33 18 -11 28 -9 74 13 59 30 235 113 287 136 19 8 51 22 70 30 19 8 49 21 65 28 17 7 71 30 120 50 50 21 115 48 145 62 30 13 69 30 85 37 57 26 300 148 330 166 17 10 53 30 80 45 78 41 198 135 249 195 41 48 132 176 146 205 14 31 104 157 140 198 48 54 138 124 190 148 140 64 156 65 203 7 40 -51 57 -105 57 -182 0 -53 -4 -80 -31 -186 -16 -66 -28 -137 -35 -207 l-7 -63 -46 -21 c-25 -11 -59 -27 -74 -35 -16 -8 -36 -14 -46 -14 -9 0 -25 -6 -36 -14 -11 -7 -31 -16 -45 -19 -14 -3 -50 -15 -80 -26 -102 -40 -135 -52 -165 -61 -16 -4 -46 -14 -65 -21 -19 -6 -51 -17 -70 -24 -19 -7 -51 -18 -70 -24 -19 -7 -48 -16 -65 -21 -39 -11 -91 -29 -133 -46 -18 -8 -41 -14 -50 -14 -10 0 -22 -4 -28 -9 -5 -4 -43 -20 -84 -34 -41 -14 -100 -36 -130 -47 -30 -12 -69 -26 -87 -31 -18 -5 -35 -14 -38 -19 -4 -6 -13 -10 -21 -10 -55 0 -542 -259 -564 -300 -8 -14 0 -24 43 -52 81 -54 189 -128 227 -158 19 -15 42 -30 50 -34 16 -7 35 -18 95 -57 22 -14 47 -28 55 -32 8 -4 22 -11 30 -16 8 -5 22 -12 30 -15 8 -3 22 -10 30 -14 97 -56 347 -132 432 -132 38 0 50 -5 67 -26 38 -48 21 -114 -41 -163 -14 -12 -31 -21 -36 -21 -5 0 -15 -7 -22 -15 -7 -8 -20 -15 -30 -15 -10 0 -23 -7 -30 -15 -7 -8 -20 -15 -30 -15 -10 0 -23 -7 -30 -15 -18 -21 -41 -19 -70 8 -14 12 -63 54 -110 94 -47 40 -98 84 -115 99 -16 14 -57 47 -90 72 -33 26 -67 52 -75 59 -36 29 -181 133 -185 133 -2 0 -23 13 -47 29 -52 35 -116 72 -183 106 -27 14 -57 30 -65 34 -83 47 -103 49 -189 17 -56 -22 -269 -126 -346 -171 -33 -19 -69 -39 -80 -45 -83 -42 -290 -206 -397 -312 -58 -60 -113 -108 -121 -108 -25 0 -120 31 -162 53 -57 29 -100 81 -120 143 -31 100 -27 103 153 129 57 9 112 20 122 25 10 6 31 10 45 10 14 0 36 5 48 12 12 6 35 15 52 19 67 16 125 40 260 106 98 48 292 170 331 209 11 11 30 27 43 36 35 25 20 50 -62 105 -40 26 -76 50 -81 52 -4 2 -36 22 -70 45 -33 23 -68 45 -76 49 -8 4 -28 16 -45 27 -16 11 -39 24 -50 30 -11 6 -49 26 -85 46 -190 105 -409 206 -580 269 -19 7 -53 19 -75 27 -71 26 -109 40 -140 48 -16 5 -43 13 -60 18 -48 17 -193 56 -290 79 -66 15 -83 19 -168 35 -90 17 -91 20 -95 275 -3 182 -1 222 14 271 51 163 138 226 245 174z m459 -229 c0 -16 103 -70 170 -89 67 -19 118 -16 183 10 67 28 81 21 93 -42 8 -42 -14 -272 -27 -286 -17 -19 -185 84 -270 165 -56 54 -170 198 -182 232 -5 12 -1 17 13 17 11 0 20 -3 20 -7z m2475 -71 c97 -34 154 -44 261 -44 84 -1 114 -4 114 -13 0 -11 -66 -76 -170 -169 -61 -54 -287 -214 -330 -232 -8 -4 -23 -14 -32 -22 -10 -8 -24 -12 -33 -8 -14 5 -15 16 -10 63 16 153 55 331 87 401 19 40 23 44 52 39 17 -2 45 -9 61 -15z m-1691 -344 c4 -79 3 -129 -3 -132 -5 -4 -22 6 -36 21 -23 25 -26 34 -22 83 3 30 10 75 17 100 7 25 15 51 17 59 10 37 21 -15 27 -131z m861 -458 c3 -6 -4 -15 -17 -20 -24 -11 -47 -25 -124 -77 -60 -42 -94 -42 -163 0 -29 17 -64 38 -77 45 -26 14 -32 47 -11 55 24 10 386 7 392 -3z"></path> <path d="M3545 5091 c-108 -16 -242 -81 -329 -160 -67 -61 -133 -171 -157 -261 -15 -58 3 -127 69 -260 37 -74 64 -112 123 -172 74 -76 77 -78 124 -78 46 0 132 16 250 47 79 21 235 97 305 149 31 23 84 69 117 102 62 64 183 235 183 261 0 46 -98 192 -165 246 -52 41 -126 82 -193 105 -63 22 -242 34 -327 21z"></path> <path d="M5070 5071 c-141 -38 -247 -115 -292 -209 -18 -40 -21 -65 -21 -169 0 -124 3 -141 52 -242 22 -45 94 -118 161 -162 65 -43 183 -99 208 -99 9 0 35 -7 57 -15 64 -23 276 -20 345 4 82 29 114 47 168 96 129 116 166 341 83 517 -66 143 -204 231 -438 282 -95 21 -240 20 -323 -3z"></path> <path d="M4406 4320 c-3 -8 -4 -125 -3 -260 2 -210 5 -252 21 -297 21 -61 66 -109 108 -119 35 -7 40 -3 61 54 22 54 22 220 2 277 -8 22 -15 45 -15 52 0 26 -101 218 -147 279 -16 22 -23 25 -27 14z"></path> <path d="M4304 4203 c-15 -31 -46 -89 -68 -128 -62 -106 -70 -131 -74 -242 -3 -83 0 -107 14 -127 42 -65 134 -8 173 105 18 54 21 86 21 233 0 94 -3 181 -6 194 -10 37 -32 25 -60 -35z"></path> </g> </svg> 